<?xml version="1.0" encoding="UTF-8" standalone="no"?>
<!-- Created with Inkscape (http://www.inkscape.org/) -->

<svg
   xmlns:dc="http://purl.org/dc/elements/1.1/"
   xmlns:cc="http://creativecommons.org/ns#"
   xmlns:rdf="http://www.w3.org/1999/02/22-rdf-syntax-ns#"
   xmlns:svg="http://www.w3.org/2000/svg"
   xmlns="http://www.w3.org/2000/svg"
   xmlns:sodipodi="http://sodipodi.sourceforge.net/DTD/sodipodi-0.dtd"
   xmlns:inkscape="http://www.inkscape.org/namespaces/inkscape"
   version="1.1"
   id="svg10"
   width="400"
   height="701.33331"
   viewBox="0 0 400 701.33331"
   sodipodi:docname="Power.svg"
   inkscape:version="0.92.2 (5c3e80d, 2017-08-06)">
  <metadata
     id="metadata16">
    <rdf:RDF>
      <cc:Work
         rdf:about="">
        <dc:format>image/svg+xml</dc:format>
        <dc:type
           rdf:resource="http://purl.org/dc/dcmitype/StillImage" />
        <dc:title></dc:title>
      </cc:Work>
    </rdf:RDF>
  </metadata>
  <defs
     id="defs14" />
  <sodipodi:namedview
     pagecolor="#ffffff"
     bordercolor="#666666"
     borderopacity="1"
     objecttolerance="10"
     gridtolerance="10"
     guidetolerance="10"
     inkscape:pageopacity="0"
     inkscape:pageshadow="2"
     inkscape:window-width="1920"
     inkscape:window-height="1017"
     id="namedview12"
     showgrid="false"
     inkscape:zoom="1.2119772"
     inkscape:cx="200"
     inkscape:cy="350.66666"
     inkscape:window-x="-8"
     inkscape:window-y="-8"
     inkscape:window-maximized="1"
     inkscape:current-layer="svg10" />
  <path
     style="fill:#000000;stroke-width:1.33333325"
     d="m 194.85272,669.09252 c -1.71932,-3.85 -9.5378,-20.79999 -17.3744,-37.66666 -7.83662,-16.86667 -21.12236,-45.53595 -29.52391,-63.70952 L 132.67889,534.6735 122.06886,397.86296 c -5.83552,-75.2458 -10.61004,-137.62652 -10.61004,-138.62381 0,-1.47204 -5.34242,-1.81328 -28.388464,-1.81328 h -28.38846 l -19.2782,21.53477 -19.27821,21.53479 -0.3539,-39.13724 -0.3539,-39.13724 21.02057,-21.53418 21.02057,-21.53418 47.444444,-0.19669 c 26.09444,-0.10813 47.74757,-0.49983 48.11806,-0.87032 0.37049,-0.37049 -0.51729,-6.52049 -1.97285,-13.66667 -2.09047,-10.26319 -2.65654,-18.45563 -2.69428,-38.99303 -0.0489,-26.63108 0.56533,-30.819054 7.774,-53 0.91605,-2.818688 0.60294,-3 -5.18054,-3 h -6.1555 V 50.759214 32.092548 h 11.85734 c 9.11955,0 12.02838,-0.445694 12.59807,-1.930287 1.617,-4.213826 9.21248,-6.436825 24.1776,-7.076157 18.47308,-0.789196 29.62435,1.087237 33.63636,5.660025 2.70496,3.083025 3.83312,3.346419 14.33333,3.346419 h 11.3973 V 50.759214 69.42588 h -5.98055 -5.98055 l 2.5829,6.552852 c 1.4206,3.604068 3.57954,11.854067 4.79768,18.333332 2.91362,15.497706 1.98436,52.614536 -1.77207,70.780476 l -2.55035,12.33333 h 47.5027 47.5027 l 22.20751,22.34707 22.20751,22.34708 0.018,37.65292 c 0.009,20.70912 -0.50327,37.65293 -1.14031,37.65293 -0.63704,0 -9.70449,-9 -20.14991,-20 l -18.99165,-20 h -28.46011 c -21.88545,0 -28.45741,0.38503 -28.4484,1.66667 0.007,0.91666 -4.5219,63.16666 -10.063,138.33333 l -10.07473,136.66666 -12.03653,26 c -6.6201,14.3 -21.37527,46.25 -32.7893,71 -11.41401,24.75 -21.30224,44.99999 -21.97382,44.99999 -0.67159,0 -2.62779,-3.15 -4.34711,-7 z m 20.41244,-123.50271 14.75532,-32.50271 3.40905,-51.49729 c 1.87499,-28.3235 4.27768,-64.6682 5.33935,-80.766 1.06165,-16.0978 1.70264,-29.49635 1.42441,-29.77458 -0.27823,-0.27823 -9.37679,7.64269 -20.21903,17.60205 -10.84224,9.95936 -20.22526,18.10792 -20.85116,18.10792 -0.62589,0 -8.75641,-7.00881 -18.0678,-15.57515 -9.3114,-8.56633 -18.3598,-16.81633 -20.10757,-18.33333 l -3.17775,-2.75818 0.90687,14.66666 c 0.49877,8.06667 2.91284,44.96667 5.36459,82 l 4.45772,67.33333 15.1465,32.87576 c 8.33058,18.08168 15.53298,32.48168 16.00534,32 0.47236,-0.48167 7.49873,-15.50199 15.61416,-33.37848 z m 4.19366,-226.57714 19.33334,-17.00284 0.37437,-16.29197 0.37437,-16.29199 h -40.7077 -40.70771 v 15.71087 15.71088 l 20.2208,17.62245 c 11.12144,9.69236 20.57144,17.60513 21,17.58395 0.42856,-0.0212 9.4792,-7.68979 20.11253,-17.04135 z m -156.716784,-86.81233 6.61654,-6.77447 h 45.716794 45.71679 v 7.33334 7.33333 h 37.33333 37.33333 v -7.33333 -7.33334 h 46.97724 46.97723 l 13.68944,13.64284 13.68943,13.64286 v -11.28675 -11.28675 l -13.64284,-13.68944 -13.64286,-13.68942 h -55.02381 c -53.24605,0 -55.10999,0.0861 -57.69049,2.66666 -2.35327,2.35327 -4.44444,2.66667 -17.79335,2.66667 -13.43336,0 -15.39684,-0.29852 -17.53999,-2.66667 -2.33901,-2.58458 -4.10662,-2.66666 -57.42741,-2.66666 H 69.017306 l -14.11258,13.47408 -14.11257,13.47408 v 11.3245 11.32452 l 7.66667,-6.6908 c 4.21666,-3.67994 10.64411,-9.7393 14.28321,-13.46525 z M 216.18609,171.48647 c 4.17104,-4.17102 4.17104,-9.2835 0,-13.45453 -3.03444,-3.03445 -4.23481,-3.27273 -16.48685,-3.27273 -11.34944,0 -13.70987,0.38996 -16.72727,2.76344 -2.54804,2.00428 -3.51315,3.99226 -3.51315,7.23656 0,3.24429 0.96511,5.23228 3.51315,7.23656 3.0174,2.37348 5.37783,2.76344 16.72727,2.76344 12.25204,0 13.45241,-0.23828 16.48685,-3.27274 z m -2.15596,-38.67795 c 6.36397,-3.29094 7.29061,-9.64194 2.15596,-14.77658 -3.05941,-3.05942 -4.18576,-3.27273 -17.28139,-3.27273 -12.69397,0 -14.2638,0.27386 -16.72726,2.91808 -4.94743,5.31043 -2.91623,13.61205 3.94805,16.13601 4.43876,1.6321 24.18008,0.92126 27.90464,-1.00478 z m 2.66525,-40.22912 c 1.5199,-1.932229 2.76344,-4.551314 2.76344,-5.820187 0,-1.268874 -1.24354,-3.887959 -2.76344,-5.820188 -2.69592,-3.427308 -3.13386,-3.513145 -17.9244,-3.513145 -14.1554,0 -15.29861,0.196542 -17.23656,2.963341 -1.14157,1.629838 -2.0756,4.496334 -2.0756,6.369992 0,1.873657 0.93403,4.740153 2.0756,6.369991 1.93795,2.766799 3.08116,2.963342 17.23656,2.963342 14.79054,0 15.22848,-0.08584 17.9244,-3.513146 z m -34.5901,-38.756102 c 2.24798,-1.574548 6.80341,-2.439628 14.88034,-2.825791 9.86735,-0.471764 12.52971,-0.126093 17.47783,2.269249 3.64561,1.764811 8.43264,2.825791 12.74967,2.825791 h 6.91237 v -6 -6 h -35.33333 -35.33334 v 5.111111 c 0,2.811112 0.4,5.511112 0.8889,6 1.85946,1.85947 14.53926,0.873824 17.75756,-1.38036 z"
     id="path40"
     inkscape:connector-curvature="0" />
</svg>
