<?xml version="1.0" encoding="UTF-8" standalone="no"?>
<svg
   xmlns:dc="http://purl.org/dc/elements/1.1/"
   xmlns:cc="http://creativecommons.org/ns#"
   xmlns:rdf="http://www.w3.org/1999/02/22-rdf-syntax-ns#"
   xmlns:svg="http://www.w3.org/2000/svg"
   xmlns="http://www.w3.org/2000/svg"
   viewBox="0 0 512 512"
   height="512"
   width="512"
   xml:space="preserve"
   id="svg2"
   version="1.1"><metadata
     id="metadata8"><rdf:RDF><cc:Work
         rdf:about=""><dc:format>image/svg+xml</dc:format><dc:type
           rdf:resource="http://purl.org/dc/dcmitype/StillImage" /><dc:title></dc:title></cc:Work></rdf:RDF></metadata><defs
     id="defs6" /><g
     transform="matrix(1.3333333,0,0,-1.3333333,393.48047,599.19245)"
     id="g10"><path
       d="m -196.74017,449.39435 c -54.32036,0 -98.37019,-44.04884 -98.37019,-98.37019 V 163.76453 c 0,-54.32136 44.04983,-98.370193 98.37019,-98.370193 h 83.95061 c 1.57988,0 2.96139,1.184257 2.96139,2.764112 V 446.62783 c 0,1.5815 -1.38151,2.76652 -2.96139,2.76652 z m 127.803539,0 c -1.382791,0 -2.569249,-0.99084 -2.569249,-2.37199 V 68.158449 c 0,-1.579855 1.184241,-2.764112 2.764104,-2.764112 h 59.2612328 c 54.3197142,0 98.3701932,44.048833 98.3701932,98.370193 v 187.25963 c 0,54.32135 -44.050479,98.37019 -98.3701932,98.37019 z M -196.74017,418.38047 h 55.90051 V 96.208546 h -55.90051 c -17.97464,0 -34.96408,7.110954 -47.60576,19.950204 -12.83976,12.64219 -19.95021,29.62949 -19.95021,47.60578 v 187.25963 c 0,17.97464 7.11045,34.96118 19.95021,47.60337 12.64168,12.83926 29.63112,19.75294 47.60576,19.75294 z m -2.56685,-48.00031 c -19.95193,0 -36.14998,-16.19727 -36.14998,-36.14756 0,-19.9503 16.19805,-36.14758 36.14998,-36.14758 19.95029,0 36.14757,16.19728 36.14757,36.14758 0,19.95029 -16.19728,36.14756 -36.14757,36.14756 z M 4.5445048,276.94881 c 21.3330772,0 38.7144282,-17.38133 38.7144282,-38.71442 0,-21.53179 -17.381351,-38.91409 -38.7144282,-38.91409 -21.5317968,0 -38.9140868,17.3823 -38.9140868,38.91409 0,21.33309 17.38229,38.71442 38.9140868,38.71442 z"
       style="fill:#e61d25;fill-opacity:1;fill-rule:nonzero;stroke:none;stroke-width:0.16422695"
       id="path14" /></g></svg>