<?xml version="1.0" encoding="UTF-8" standalone="no"?>
<svg
   xmlns:dc="http://purl.org/dc/elements/1.1/"
   xmlns:cc="http://creativecommons.org/ns#"
   xmlns:rdf="http://www.w3.org/1999/02/22-rdf-syntax-ns#"
   xmlns:svg="http://www.w3.org/2000/svg"
   xmlns="http://www.w3.org/2000/svg"
   viewBox="0 0 408.6124 100.79853"
   height="100.79853"
   width="408.6124"
   xml:space="preserve"
   id="svg2"
   version="1.1"><metadata
     id="metadata8"><rdf:RDF><cc:Work
         rdf:about=""><dc:format>image/svg+xml</dc:format><dc:type
           rdf:resource="http://purl.org/dc/dcmitype/StillImage" /><dc:title></dc:title></cc:Work></rdf:RDF></metadata><defs
     id="defs6" /><g
     transform="matrix(1.3333333,0,0,-1.3333333,-39.130266,180.448)"
     id="g10"><path
       d="M 67.1473,130.865 H 298.008 c 18.406,0 33.328,-14.922 33.328,-33.3283 0,-18.407 -14.922,-33.3285 -33.328,-33.3285 H 67.1473 c -18.4071,0 -33.3285,14.9215 -33.3285,33.3285 0,18.4063 14.9214,33.3283 33.3285,33.3283"
       style="fill:#ffffff;fill-opacity:1;fill-rule:nonzero;stroke:none;stroke-width:0.1"
       id="path14" /><path
       d="m 67.1473,130.865 v -4.471 H 298.008 c 7.982,-0.002 15.169,-3.223 20.405,-8.452 5.229,-5.236 8.45,-12.422 8.452,-20.4053 -0.002,-7.9832 -3.223,-15.1691 -8.452,-20.4054 -5.236,-5.2293 -12.423,-8.45 -20.405,-8.452 H 67.1473 c -7.9832,0.002 -15.1692,3.2227 -20.4055,8.452 -5.2293,5.2363 -8.45,12.4222 -8.4523,20.4054 0.0023,7.9833 3.223,15.1693 8.4523,20.4053 5.2363,5.229 12.4223,8.45 20.4055,8.452 v 4.471 4.471 C 46.2695,135.333 29.3508,118.414 29.3477,97.5367 29.3508,76.659 46.2695,59.7402 67.1473,59.7371 H 298.008 c 20.877,0.0031 37.796,16.9219 37.799,37.7996 -0.003,20.8773 -16.922,37.7963 -37.799,37.7993 H 67.1473 v -4.471"
       style="fill:#ed1d24;fill-opacity:1;fill-rule:nonzero;stroke:none;stroke-width:0.1"
       id="path16" /><path
       d="m 96.7977,80.009 v 34.889 H 86.3047 V 90.502 L 70.8273,114.898 H 59.5477 V 80.009 h 10.4929 v 25.183 L 86.3047,80.009 h 10.493"
       style="fill:#ed1d24;fill-opacity:1;fill-rule:nonzero;stroke:none;stroke-width:0.1"
       id="path18" /><path
       d="m 113.849,80.009 v 23.609 H 103.356 V 80.009 h 10.493"
       style="fill:#ed1d24;fill-opacity:1;fill-rule:nonzero;stroke:none;stroke-width:0.1"
       id="path20" /><path
       d="m 113.849,108.602 v 6.296 h -10.493 v -6.296 h 10.493"
       style="fill:#ed1d24;fill-opacity:1;fill-rule:nonzero;stroke:none;stroke-width:0.1"
       id="path22" /><path
       d="m 150.574,80.009 v 16.264 c 0,3.4102 -6.558,8.132 -9.968,8.132 h -3.148 c -2.361,0 -4.985,-2.098 -7.345,-3.148 v 2.361 H 119.62 V 80.009 h 10.493 v 16.264 c 0,1.5739 3.672,3.4102 5.246,3.4102 1.574,0 4.46,-1.8363 4.46,-3.4102 V 80.009 h 10.755"
       style="fill:#ed1d24;fill-opacity:1;fill-rule:nonzero;stroke:none;stroke-width:0.1"
       id="path24" /><path
       d="m 238.366,79.1961 v 16.2641 c 0,3.4101 -6.558,8.1318 -9.968,8.1318 h -3.148 c -2.361,0 -4.985,-2.098 -7.345,-3.148 v 2.361 H 207.412 V 79.1961 h 10.493 v 16.2641 c 0,1.5738 3.672,3.4101 5.246,3.4101 1.574,0 4.46,-1.8363 4.46,-3.4101 V 79.1961 h 10.755"
       style="fill:#ed1d24;fill-opacity:1;fill-rule:nonzero;stroke:none;stroke-width:0.1"
       id="path26" /><path
       d="m 167.625,80.009 v 23.609 h 5.509 v 3.148 h -5.509 v 4.984 H 156.87 v -4.984 h -5.509 v -3.148 h 5.509 V 80.009 h 10.755"
       style="fill:#ed1d24;fill-opacity:1;fill-rule:nonzero;stroke:none;stroke-width:0.1"
       id="path28" /><path
       d="m 187.824,102.044 c 2.361,0 4.197,-1.574 4.197,-4.1971 v -2.361 h -8.132 v 2.361 c 0,2.6231 1.574,4.1971 3.935,4.1971 z m 0,2.361 c -8.395,0 -15.477,-5.771 -15.477,-12.8538 0,-7.3449 7.082,-13.116 15.477,-13.116 7.345,0 13.378,4.1968 14.952,9.7058 h -10.755 v -3.148 c 0,-2.6231 -1.836,-3.4102 -4.197,-3.4102 -2.361,0 -3.935,0.7871 -3.935,3.4102 v 6.5582 h 19.412 c 0,7.0828 -6.821,12.8538 -15.477,12.8538"
       style="fill:#ed1d24;fill-opacity:1;fill-rule:nonzero;stroke:none;stroke-width:0.1"
       id="path30" /><path
       d="m 291.179,102.044 c 2.361,0 3.935,-1.574 3.935,-4.1971 V 84.993 c 0,-2.6231 -1.574,-3.4102 -3.935,-3.4102 -2.623,0 -4.197,0.7871 -4.197,3.4102 v 12.8539 c 0,2.6231 1.574,4.1971 4.197,4.1971 z m 0,2.361 c -8.656,0 -15.477,-5.771 -15.477,-12.8538 0,-7.3449 6.821,-13.116 15.477,-13.116 8.395,0 15.477,5.7711 15.477,13.116 0,7.0828 -7.082,12.8538 -15.477,12.8538"
       style="fill:#ed1d24;fill-opacity:1;fill-rule:nonzero;stroke:none;stroke-width:0.1"
       id="path32" /><path
       d="m 257.077,100.47 c 2.361,0 3.935,-1.836 3.935,-4.197 v -9.7058 c 0,-2.3609 -1.574,-3.1481 -3.935,-3.1481 -2.623,0 -4.197,0.7872 -4.197,3.1481 v 9.7058 c 0,2.361 1.574,4.197 4.197,4.197 z m 3.935,14.428 v -12.854 c 0,0 -3.148,2.361 -7.345,2.361 -6.558,0 -12.067,-5.771 -12.067,-12.0667 0,-6.5582 5.509,-13.1164 12.067,-13.1164 4.197,0 7.345,1.5742 7.345,1.5742 V 80.009 h 10.493 v 34.889 h -10.493"
       style="fill:#ed1d24;fill-opacity:1;fill-rule:nonzero;stroke:none;stroke-width:0.1"
       id="path34" /><path
       d="m 309.643,107.498 -1.049,1.837 -0.121,0.211 h -2.079 v -0.838 h 1.836 c 0.512,-0.004 0.949,0.23 1.213,0.567 0.267,0.337 0.386,0.753 0.387,1.164 -10e-4,0.41 -0.12,0.827 -0.387,1.163 -0.264,0.337 -0.701,0.572 -1.213,0.567 h -1.836 -0.419 v -4.878 h 0.838 v 4.04 h 1.417 c 0.276,-0.004 0.429,-0.098 0.559,-0.252 0.126,-0.156 0.204,-0.395 0.203,-0.64 10e-4,-0.246 -0.077,-0.485 -0.203,-0.641 -0.13,-0.154 -0.283,-0.248 -0.559,-0.252 h -1.836 v -0.838 h 1.593 l 0.929,-1.625 z m 3.309,1.891 h -0.419 c 10e-4,-1.184 -0.536,-2.331 -1.385,-3.179 -0.849,-0.849 -1.996,-1.387 -3.18,-1.386 -2.644,0.005 -4.563,2.163 -4.565,4.565 0.009,2.685 1.925,4.825 4.565,4.828 1.184,0.001 2.327,-0.535 3.174,-1.413 0.848,-0.878 1.392,-2.088 1.391,-3.415 h 0.419 0.419 c -0.007,3.116 -2.525,5.656 -5.403,5.666 -1.558,10e-4 -2.922,-0.643 -3.881,-1.675 -0.96,-1.031 -1.522,-2.446 -1.522,-3.991 0.005,-2.844 2.276,-5.401 5.403,-5.403 2.874,0.016 5.388,2.529 5.403,5.403 h -0.419"
       style="fill:#ed1d24;fill-opacity:1;fill-rule:nonzero;stroke:none;stroke-width:0.1"
       id="path36" /></g></svg>