<svg xmlns="http://www.w3.org/2000/svg" viewBox="0 0 454.96 500"><path d="M148.71,500.78V462.05C236.53,445,155.6,364,243.87,361.11c33.92-1.6,46.88-14.61,47.89-48.26-.62-35.59-2.66-67,43.43-70.4,37-.32,74,.61,111,2.07,21.32.84,33.72,14,36.08,38,.22,37.57,2.18,61,.59,108.52-1.37,27.12-17.8,43-45.13,44.54-11.76.66-23.59-.2-35.34.47-62.8,5.1-20.55,69.85-58.26,69.95q-93.36-.33-186.71-1.23C155.89,504.75,154.38,503.43,148.71,500.78Z" transform="translate(-28.52 -6)"/><path d="M29.14,337.69c.16-37.39-9.84-98.76,45-96.07q73.13,1,146.24,2.48c37,.72,42.8.73,42.8,57.84,0,30.49-16.08,32.53-31.26,33.37-43.58-.35-64.13,18.21-61.83,62.47-2.35,17.69-15.31,32.11-32.77,33a739.88,739.88,0,0,1-75.65,0c-46.54-2.36-29.26-61.63-32.09-93Z" transform="translate(-28.52 -6)"/><path d="M145.63,113.57c0-26.08-.58-52.18.17-78.24.66-23,5.94-27.82,28.93-28.58,14.29-.48,28.63-.6,42.9.16,34.78-1.22,27.25,37.58,28.11,61.37,0,37,.42,74-.2,111.05-.56,32.76-7.84,39.36-40.88,39.8-25.1-.58-61.76,7-58.88-29.85C145.09,164.06,145.62,138.81,145.63,113.57Z" transform="translate(-28.52 -6)"/><path d="M266.88,111.14c4.14-99-23.63-109.37,74-104C357.07,8.21,362.2,12.73,362.4,29q1,81.86,0,163.73c-.25,19-7.26,25-26.7,26a368.15,368.15,0,0,1-42.8-.06c-18.85-1.17-25.18-7.45-25.76-27-.81-26.85-.21-53.74-.21-80.61Z" transform="translate(-28.52 -6)"/><path d="M125.25,128.33c-3.35,78.43,21.48,97-73.18,90.07-14.94-1.18-21.83-7.34-22.12-22.31-.89-46.09-.54-92.21-.38-138.31.05-13.92,8.27-22.52,21.46-23.5,17.47-1.3,35.24-1.63,52.63.1,15.25,1.51,20.82,9.09,21.39,26.05C125.81,83,125.24,105.69,125.25,128.33Z" transform="translate(-28.52 -6)"/><path d="M478.79,127.4c0,21,.6,41.94-.17,62.87-.8,22-6.91,27.71-29.39,28.67a385.39,385.39,0,0,1-40.22-.18c-18.05-1.12-25.42-7.06-25.76-24.24-.88-45.25-.79-90.53-.07-135.78.25-16.13,6.94-23.25,22.87-24.69a268.21,268.21,0,0,1,50.13.14c15.58,1.53,21.65,8.91,22.26,25.32.85,22.6.21,45.26.21,67.89Z" transform="translate(-28.52 -6)"/></svg>