<svg xmlns="http://www.w3.org/2000/svg" viewBox="0 0 474.4 500"><path d="M85.72,369.94c-54.55-72.41-67.13-171.36,23.76-228-13.27,43-22.75,92.63,24.33,120.59l-.35.32c-28.4-71.29,33.65-118.32,83-157.89C259.22,73.29,234,45,220.77,6,322,39.77,340,150.76,332.92,244.29c49.82-1.39,87.66-21.61,110.44-67.3,51.81,62.48-7.48,131.84-62.49,167.08,48.63-.46,73.48-23.75,112.33-48.76C459,547,74.8,589.39,18.8,334l67.27,35.66Zm167.4-87.62c-16.31,1.07-23.65,3.81-36.9,13.52-65.5,42.78,39.89,64.37-14.42,107.42-11.14-11.13-19.37-31.07-38.61-27.48,14.22,22.58,14.11,29.58,0,49.52-39,68,104.9,79.11,143.7,56.67,70.73-25.47-28.5-83.93,27.13-125.62-24.66-5.9-37.31,15.26-54.46,26.63-2.76-13.84-9.42-34.91-25.25-43.59C224.3,325.29,232.93,298.24,253.12,282.32Z" transform="translate(-18.8 -6)"/></svg>