<svg xmlns="http://www.w3.org/2000/svg" viewBox="0 0 419.34 500"><path d="M256.32,506,264,471.1c43.9-147.45,16-139.27,168-98.05l33.66,9-21.41-21.37c-135.63-131.68-93.39-92.95,19-226.21-17,5.23-104,28.92-123,34.15-29.06,6.49-39.28.68-48.86-27.69-2-7.55-31-103.81-35.67-135h0c-3.31,23.4-29.83,110.37-36.7,134.6-7.72,23-19,29-42.34,23.75-24-6.53-107.77-28.1-130.31-34.43C186,272.82,186.44,229.49,48.74,377.5c17-5.23,104-28.92,123-34.15,29.06-6.49,39.28-.68,48.86,27.69,2,7.55,31,103.81,35.67,135Z" transform="translate(-46.33 -6)"/></svg>