<svg xmlns="http://www.w3.org/2000/svg" viewBox="0 0 481.41 500.62"><path d="M429.57,31.15C371.43,53.3,308.31,116.84,344,181.83,375.34,248,447.27,292.06,457,368.11c16.84,86.75-71.57,136.36-147.15,137.28C26.57,528.49-109.82,218.56,164.19,83.27,267.5,30.58,382.53,16.18,496.55,6,474.3,14.57,451.65,22.16,429.57,31.15ZM237.25,474c15.05-.63,30,2.86,37.58-12.69,6.13-14.06-3.56-23.15-13-31.23-21.13-22.84-115.58-63-133.66-25.91-4.91,12.86,3.46,21.71,12.21,29.48C169,459,202.78,471.38,237.25,474Z" transform="translate(-15.14 -6)"/></svg>