<?xml version="1.0" encoding="UTF-8" standalone="no"?>
<svg
   xmlns:dc="http://purl.org/dc/elements/1.1/"
   xmlns:cc="http://creativecommons.org/ns#"
   xmlns:rdf="http://www.w3.org/1999/02/22-rdf-syntax-ns#"
   xmlns:svg="http://www.w3.org/2000/svg"
   xmlns="http://www.w3.org/2000/svg"
   viewBox="0 0 512 512"
   height="512"
   width="512"
   xml:space="preserve"
   id="svg2"
   version="1.1"><metadata
     id="metadata8"><rdf:RDF><cc:Work
         rdf:about=""><dc:format>image/svg+xml</dc:format><dc:type
           rdf:resource="http://purl.org/dc/dcmitype/StillImage" /><dc:title></dc:title></cc:Work></rdf:RDF></metadata><defs
     id="defs6" /><g
     transform="matrix(1.3333333,0,0,-1.3333333,-614.73733,1032.232)"
     id="g10"><g
       transform="matrix(1.0466096,0,0,1.0782277,-21.489488,-30.522411)"
       id="g108"><path
         id="path20"
         style="fill:#00ad5b;fill-opacity:1;fill-rule:nonzero;stroke:none;stroke-width:0.1"
         d="m 587.414,627.664 -24.106,48.666 28.706,52.488 51.841,-18.922 -43.416,-74.585 -13.025,-5.184 v -2.463" /><path
         id="path22"
         style="fill:#00ad5b;fill-opacity:1;fill-rule:nonzero;stroke:none;stroke-width:0.1"
         d="m 682.281,637.061 18.08,-7.452 v 0 0 l 72.834,-103.486 v 133.359 l -50.543,19.18 -40.371,-41.601" /><path
         id="path24"
         style="fill:#4a3a92;fill-opacity:1;fill-rule:nonzero;stroke:none;stroke-width:0.1"
         d="m 682.281,637.061 10.239,10.562 v 81.324 l -48.665,-19.051 -43.416,-74.585 43.481,17.431 38.361,-15.681" /><path
         id="path26"
         style="fill:#f5b200;fill-opacity:1;fill-rule:nonzero;stroke:none;stroke-width:0.1"
         d="m 643.855,709.896 -51.841,18.922 49.897,17.496 50.609,-17.367 -48.665,-19.051" /><path
         id="path28"
         style="fill:#f5b200;fill-opacity:1;fill-rule:nonzero;stroke:none;stroke-width:0.1"
         d="m 514.902,659.87 -53.849,22.033 49.509,16.329 51.515,-19.311 -47.175,-19.051" /><path
         id="path30"
         style="fill:#f5b200;fill-opacity:1;fill-rule:nonzero;stroke:none;stroke-width:0.1"
         d="m 722.652,678.662 53.459,22.163 51.841,-18.922 -54.757,-22.421 -50.543,19.18" /><path
         id="path32"
         style="fill:#f5b200;fill-opacity:1;fill-rule:nonzero;stroke:none;stroke-width:0.1"
         d="m 587.414,630.127 56.506,22.615 56.441,-23.133 -55.859,-22.875 -57.088,23.393" /><path
         id="path34"
         style="fill:#ed0128;fill-opacity:1;fill-rule:nonzero;stroke:none;stroke-width:0.1"
         d="m 776.047,444.086 -77.695,100.505 v -56.182 l 17.755,-23.522 59.94,-20.801 v 0" /><path
         id="path36"
         style="fill:#4a3a92;fill-opacity:1;fill-rule:nonzero;stroke:none;stroke-width:0.1"
         d="M 562.077,464.564 512.57,554.7 V 444.28 Z" /><path
         id="path38"
         style="fill:#4a3a92;fill-opacity:1;fill-rule:nonzero;stroke:none;stroke-width:0.1"
         d="m 644.502,606.734 55.859,22.875 72.834,-103.486 v 133.359 l 54.757,22.421 V 465.405 L 776.047,444.086 698.352,544.591 V 412.269 l -53.85,-22.095 v 216.56" /><path
         id="path40"
         style="fill:#00ad5b;fill-opacity:1;fill-rule:nonzero;stroke:none;stroke-width:0.1"
         d="m 587.414,630.127 57.088,-23.393 V 390.174 L 590.913,412.139 512.57,554.7 V 444.28 l -51.517,21.125 v 216.498 l 53.849,-22.033 72.512,-140.681 v 110.938" /><path
         id="path42"
         style="fill:#ed0128;fill-opacity:1;fill-rule:nonzero;stroke:none;stroke-width:0.1"
         d="m 587.414,519.189 -72.512,140.681 47.175,19.051 25.337,-51.257 v -108.475 0" /><path
         id="path44"
         style="fill:#000000;fill-opacity:1;fill-rule:nonzero;stroke:none;stroke-width:0.1"
         d="M 773.195,659.482 V 526.123 l -72.834,103.486 v 0 0 l 72.834,-103.486 v 133.359" /></g></g></svg>