<?xml version="1.0" encoding="UTF-8" standalone="no"?>
<svg
   xmlns:dc="http://purl.org/dc/elements/1.1/"
   xmlns:cc="http://creativecommons.org/ns#"
   xmlns:rdf="http://www.w3.org/1999/02/22-rdf-syntax-ns#"
   xmlns:svg="http://www.w3.org/2000/svg"
   xmlns="http://www.w3.org/2000/svg"
   xmlns:sodipodi="http://sodipodi.sourceforge.net/DTD/sodipodi-0.dtd"
   xmlns:inkscape="http://www.inkscape.org/namespaces/inkscape"
   viewBox="0 0 512 512"
   version="1.1"
   id="svg4"
   sodipodi:docname="ie-128x128.svg"
   width="512"
   height="512"
   inkscape:version="0.92.3 (2405546, 2018-03-11)">
  <metadata
     id="metadata10">
    <rdf:RDF>
      <cc:Work
         rdf:about="">
        <dc:format>image/svg+xml</dc:format>
        <dc:type
           rdf:resource="http://purl.org/dc/dcmitype/StillImage" />
      </cc:Work>
    </rdf:RDF>
  </metadata>
  <defs
     id="defs8" />
  <sodipodi:namedview
     pagecolor="#ffffff"
     bordercolor="#666666"
     borderopacity="1"
     objecttolerance="10"
     gridtolerance="10"
     guidetolerance="10"
     inkscape:pageopacity="0"
     inkscape:pageshadow="2"
     inkscape:window-width="1920"
     inkscape:window-height="1054"
     id="namedview6"
     showgrid="false"
     inkscape:zoom="0.56719813"
     inkscape:cx="279.12905"
     inkscape:cy="97.79606"
     inkscape:window-x="0"
     inkscape:window-y="0"
     inkscape:window-maximized="1"
     inkscape:current-layer="svg4" />
  <path
     d="M 512,267.90651 C 512,226.69458 501.53504,188.02587 483.18529,154.38065 561.40667,-25.869086 399.37489,0.55774356 390.35252,2.3539436 c -34.32541,6.83648 -66.08714,17.8319304 -95.38409,31.7525004 -4.31953,-0.24761 -8.66379,-0.37771 -13.04926,-0.37771 -109.32776,0 -200.845714,77.643786 -224.265142,181.731186 57.621192,-65.82158 97.951902,-92.37852 122.100872,-103.00465 -3.8579,3.50428 -7.62924,7.05471 -11.33876,10.62613 l -3.6477,3.58821 c -2.44828,2.39634 -4.88832,4.79687 -7.27477,7.21839 -1.41786,1.43948 -2.80275,2.89155 -4.2,4.34362 -2.11855,2.19069 -4.22885,4.38139 -6.29382,6.58467 l -4.33601,4.70874 c -1.92895,2.10256 -3.84966,4.20932 -5.72915,6.32028 l -4.34014,4.93116 c -1.78057,2.04381 -3.54877,4.08762 -5.29637,6.13983 -1.44671,1.69967 -2.87693,3.39935 -4.29479,5.10322 -1.6528,1.98506 -3.28499,3.97431 -4.90069,5.95937 -1.43023,1.75843 -2.85221,3.51686 -4.24946,5.2711 -1.51266,1.90112 -2.99235,3.79804 -4.46379,5.69077 -1.43434,1.83817 -2.86457,3.67214 -4.26182,5.50611 l -3.92797,5.22914 c -1.467324,1.96826 -2.947014,3.93653 -4.381358,5.89221 l -3.012954,4.18834 c -9.088321,12.63217 -17.397642,25.01674 -24.899114,36.91448 l -0.05358,0.0881 c -1.974288,3.13496 -3.878507,6.21956 -5.749754,9.27898 l -0.305004,0.50361 c -1.871247,3.07201 -3.676546,6.08946 -5.436506,9.08173 l -0.185476,0.31476 c -4.731697,8.04514 -9.121294,15.7965 -13.073993,23.08624 -20.719722,38.23647 -30.809613,64.95288 -31.246512,66.53505 -65.43591,238.20245 138.793701,137.61512 167.291051,122.59921 30.68596,15.43558 65.23395,25.06709 101.77271,25.06709 100.05396,-0.004 185.1668,-66.75326 216.85022,-154.88468 H 377.87617 c -17.88812,29.37714 -52.3207,50.56645 -91.88478,50.56645 -57.97153,0 -104.96289,-46.36972 -104.96289,-100.92726 H 510.11227 C 511.36114,289.58685 512,278.12976 512,267.90651 Z M 47.963941,477.6719 C 31.823413,460.82201 28.971205,419.77794 64.582584,344.98794 82.553141,397.6024 118.41595,441.6849 164.76844,469.66453 141.71585,482.58627 80.517028,511.66964 47.963941,477.6719 Z M 180.52153,235.0293 c 1.83828,-54.55755 47.6632,-96.54588 103.97369,-96.54588 56.30637,0 102.13954,41.98833 103.97781,96.54588 z M 365.07421,49.516854 c 21.29264,-10.47086 74.01726,-32.61283 103.94896,-12.04883 19.81295,13.6184 35.70618,35.00077 8.41648,107.012526 C 451.26282,101.6193 411.88421,67.999264 365.07421,49.516854 Z"
     id="path2"
     inkscape:connector-curvature="0"
     style="fill:#1ebbee;stroke-width:4.15904188" />
</svg>
