<?xml version="1.0" encoding="UTF-8" standalone="no"?>
<svg
   xmlns:dc="http://purl.org/dc/elements/1.1/"
   xmlns:cc="http://creativecommons.org/ns#"
   xmlns:rdf="http://www.w3.org/1999/02/22-rdf-syntax-ns#"
   xmlns:svg="http://www.w3.org/2000/svg"
   xmlns="http://www.w3.org/2000/svg"
   xmlns:sodipodi="http://sodipodi.sourceforge.net/DTD/sodipodi-0.dtd"
   xmlns:inkscape="http://www.inkscape.org/namespaces/inkscape"
   viewBox="0 0 512 512"
   version="1.1"
   id="svg21"
   sodipodi:docname="safari-128x128.svg"
   width="512"
   height="512"
   inkscape:version="0.92.3 (2405546, 2018-03-11)">
  <metadata
     id="metadata27">
    <rdf:RDF>
      <cc:Work
         rdf:about="">
        <dc:format>image/svg+xml</dc:format>
        <dc:type
           rdf:resource="http://purl.org/dc/dcmitype/StillImage" />
      </cc:Work>
    </rdf:RDF>
  </metadata>
  <defs
     id="defs25" />
  <sodipodi:namedview
     pagecolor="#ffffff"
     bordercolor="#666666"
     borderopacity="1"
     objecttolerance="10"
     gridtolerance="10"
     guidetolerance="10"
     inkscape:pageopacity="0"
     inkscape:pageshadow="2"
     inkscape:window-width="1920"
     inkscape:window-height="1054"
     id="namedview23"
     showgrid="false"
     inkscape:zoom="0.56719813"
     inkscape:cx="94.63145"
     inkscape:cy="109.85985"
     inkscape:window-x="0"
     inkscape:window-y="0"
     inkscape:window-maximized="1"
     inkscape:current-layer="svg21" />
  <g
     id="g19"
     transform="matrix(4.096,0,0,4.096,-6.144,-6.144)">
    <linearGradient
       id="a"
       gradientUnits="userSpaceOnUse"
       x1="295.83499"
       y1="274.04901"
       x2="295.83499"
       y2="272.93301"
       gradientTransform="matrix(112,0,0,-112,-33069.5,30695)">
      <stop
         offset="0"
         stop-color="#19D7FF"
         id="stop2" />
      <stop
         offset="1"
         stop-color="#1E64F0"
         id="stop4" />
    </linearGradient>
    <circle
       cx="64"
       cy="64"
       r="62.5"
       id="circle7"
       style="fill:url(#a)" />
    <path
       d="m 64,7.6 v 9.2 m 0,94.1 v 9.2 M 73.8,8.5 72.2,17.6 m -16.4,92.5 -1.6,9.1 M 83.2,11 80.1,19.7 m -32.2,88.3 -3.1,8.7 m 9.4,-108.2 1.6,9.1 m 16.4,92.5 1.6,9.1 M 44.8,11 l 3.1,8.7 m 32.2,88.3 3.1,8.7 M 35.9,15.2 l 4.6,8 m 47,81.4 4.6,7.9 m -64.2,-91.7 5.9,7 m 60.4,72.1 5.9,7 M 20.9,27.7 28,33.6 m 72,60.5 7.1,5.9 m -91.8,-64.2 8,4.6 m 81.4,47 8,4.6 M 11.2,44.6 l 8.6,3.2 m 88.4,32.1 8.6,3.2 m -108.2,-29 9.1,1.6 m 92.6,16.3 9.1,1.6 M 7.8,63.9 H 17 m 94,0 h 9.2 M 8.6,73.6 17.7,72 m 92.6,-16.3 9.1,-1.6 m -108.2,29 8.6,-3.2 m 88.4,-32.1 8.6,-3.2 M 15.3,92 l 8,-4.6 m 81.4,-47 8,-4.6 M 20.9,100 28,94.1 m 72,-60.5 7.1,-5.9 m -79.2,79.2 5.9,-7 m 60.4,-72.1 5.9,-7 m -64.2,91.7 4.6,-7.9 m 47,-81.4 4.6,-8 m -33,-7.3 0.4,5 m 9,102 0.4,5 M 49.4,9.6 l 1.3,4.8 m 26.6,98.9 1.3,4.9 M 40.2,12.9 l 2.1,4.6 m 43.3,92.8 2.2,4.5 m -56.1,-97 2.9,4.1 m 58.8,83.9 2.9,4.1 m -72.1,-85.8 3.6,3.5 m 72.4,72.5 3.6,3.5 m -85.9,-72 4.2,2.9 m 83.8,58.7 4.2,2.9 m -97,-56 4.5,2.1 m 92.8,43.3 4.5,2.1 M 9.7,49.3 l 4.9,1.3 m 98.8,26.5 4.9,1.3 M 8,58.9 l 5,0.5 m 102,8.9 5,0.5 m -112,0 5,-0.5 m 102,-8.9 5,-0.5 M 9.7,78.4 14.6,77.1 m 98.8,-26.5 4.9,-1.3 M 13.1,87.6 17.6,85.5 m 92.8,-43.3 4.5,-2.1 m -97,56 4.2,-2.9 m 83.8,-58.7 4.2,-2.9 m -78.4,78.3 2.9,-4.1 m 58.8,-83.9 2.9,-4.1 m -56.1,97 2.2,-4.5 m 43.2,-92.8 2.2,-4.6 m -38.4,105.3 1.3,-4.9 M 77.3,14.4 78.6,9.6 m -19.5,110.3 0.4,-5 m 9,-102 0.4,-5"
       id="path9"
       inkscape:connector-curvature="0"
       style="fill:none;stroke:#ffffff" />
    <path
       d="m 106.7,21 -48,37.7 5.2,5.2 z"
       id="path11"
       inkscape:connector-curvature="0"
       style="fill:#ff0000" />
    <path
       d="m 63.9,63.9 6,6 36.8,-48.9 z"
       id="path13"
       inkscape:connector-curvature="0"
       style="fill:#d01414" />
    <path
       d="M 58.7,58.7 21,106.7 63.9,63.9 Z"
       id="path15"
       inkscape:connector-curvature="0"
       style="fill:#ffffff" />
    <path
       d="m 21,106.7 48.9,-36.8 -6,-6 z"
       id="path17"
       inkscape:connector-curvature="0"
       style="fill:#acacac" />
  </g>
</svg>
