<?xml version="1.0" encoding="UTF-8" standalone="no"?>
<!-- Created with Inkscape (http://www.inkscape.org/) -->

<svg
   xmlns:dc="http://purl.org/dc/elements/1.1/"
   xmlns:cc="http://creativecommons.org/ns#"
   xmlns:rdf="http://www.w3.org/1999/02/22-rdf-syntax-ns#"
   xmlns:svg="http://www.w3.org/2000/svg"
   xmlns="http://www.w3.org/2000/svg"
   xmlns:sodipodi="http://sodipodi.sourceforge.net/DTD/sodipodi-0.dtd"
   xmlns:inkscape="http://www.inkscape.org/namespaces/inkscape"
   version="1.1"
   id="svg51"
   width="400"
   height="685.33331"
   viewBox="0 0 400 685.33331"
   sodipodi:docname="Toughness.svg"
   inkscape:version="0.92.2 (5c3e80d, 2017-08-06)">
  <metadata
     id="metadata57">
    <rdf:RDF>
      <cc:Work
         rdf:about="">
        <dc:format>image/svg+xml</dc:format>
        <dc:type
           rdf:resource="http://purl.org/dc/dcmitype/StillImage" />
        <dc:title></dc:title>
      </cc:Work>
    </rdf:RDF>
  </metadata>
  <defs
     id="defs55" />
  <sodipodi:namedview
     pagecolor="#ffffff"
     bordercolor="#666666"
     borderopacity="1"
     objecttolerance="10"
     gridtolerance="10"
     guidetolerance="10"
     inkscape:pageopacity="0"
     inkscape:pageshadow="2"
     inkscape:window-width="1920"
     inkscape:window-height="1017"
     id="namedview53"
     showgrid="false"
     inkscape:zoom="0.34435799"
     inkscape:cx="200"
     inkscape:cy="342.66666"
     inkscape:window-x="-8"
     inkscape:window-y="-8"
     inkscape:window-maximized="1"
     inkscape:current-layer="svg51" />
  <path
     style="fill:#000000;stroke-width:1.33333325"
     d="M 191.80791,655.28269 C 175.6079,641.63664 149.10914,614.18059 133.77483,595.15311 109.22963,564.69636 93.764287,540.57388 75.892147,504.86908 36.138237,425.44909 18.542417,342.61937 20.909237,246.04519 c 1.00868,-41.15736 3.92419,-68.63351 11.76161,-110.84296 l 2.93814,-15.82371 h 10.59501 c 21.82619,0 51.29362,-6.1212 72.431623,-15.04605 35.46912,-14.975721 64.94529,-42.34356 80.83833,-75.056213 1.54079,-3.171406 3.23377,-5.498987 3.7622,-5.1724 0.52843,0.326585 2.90344,4.346989 5.2778,8.934232 10.96687,21.18784 31.69579,44.279611 51.55017,57.426271 25.61415,16.9605 58.22384,27.00843 92.61439,28.537 l 16.8706,0.74986 0.80916,4.04575 c 16.94679,84.73396 18.38031,170.71955 4.08563,245.06498 -19.31172,100.43868 -66.90252,192.36996 -135.10463,260.982 -17.72707,17.83362 -34.55439,32.20935 -37.67881,32.18937 -1.01891,-0.007 -5.45255,-3.0443 -9.85255,-6.75063 z m 19.55305,-62.08394 c 13.62335,-11.14568 39.4793,-38.60923 52.31742,-55.57027 40.1562,-53.05218 68.20326,-118.63473 78.79646,-184.24997 9.17954,-56.85891 7.34599,-128.07152 -4.74968,-184.47167 l -1.47156,-6.86165 h -12.43889 c -14.84001,0 -28.00757,-2.34522 -44.85052,-7.98812 -31.12027,-10.42624 -56.43632,-31.42166 -72.21491,-59.890126 l -4.7023,-8.484131 -2.97387,5.847858 c -14.13368,27.792599 -39.5738,49.971219 -70.79724,61.720829 -12.92048,4.86206 -34.321493,8.79369 -47.866683,8.79369 -6.47748,0 -12.05965,0.45696 -12.40483,1.01546 -0.34517,0.55851 -1.87792,7.90851 -3.4061,16.33334 -18.12603,99.92857 -8.34958,196.367 28.19377,278.11344 17.171113,38.41128 44.452383,79.80211 72.283403,109.66757 7.31711,7.85197 35.33559,33.53684 36.58387,33.53684 0.28513,0 4.65089,-3.38089 9.70166,-7.51309 z M 192.1504,534.75103 C 177.12696,522.359 157.5104,498.72986 143.57467,476.2391 103.43413,411.45666 90.626567,332.93356 106.24622,247.37852 l 1.58226,-8.66667 94.1829,-0.34224 94.18289,-0.34222 2.09551,11.67556 c 4.56826,25.45289 5.45921,36.50086 5.45764,67.67557 -10e-4,34.30713 -1.42936,47.47873 -8.15346,75.22619 -9.75798,40.267 -28.94872,79.24079 -55.31832,112.34395 -9.80198,12.30494 -34.97852,37.09652 -37.67257,37.09652 -0.88529,0 -5.589,-3.28236 -10.45267,-7.29415 z m -34.29586,-342.35454 0.0467,-16.3513 21.17942,-16.63091 c 11.64868,-9.147 21.80782,-16.84037 22.57589,-17.0964 0.76807,-0.25601 11.33487,7.43816 23.48177,17.09816 l 22.0853,17.56365 -0.37448,15.53275 -0.37452,15.53275 -44.33334,0.3513 -44.33333,0.35131 0.0467,-16.35131 z"
     id="path61"
     inkscape:connector-curvature="0" />
</svg>
